<?xml version="1.0" standalone="no"?>
<!DOCTYPE svg PUBLIC "-//W3C//DTD SVG 20010904//EN"
 "http://www.w3.org/TR/2001/REC-SVG-20010904/DTD/svg10.dtd">
<svg version="1.0" xmlns="http://www.w3.org/2000/svg"
 width="182.000000pt" height="183.000000pt" viewBox="0 0 182.000000 183.000000"
 preserveAspectRatio="xMidYMid meet">

<g transform="translate(0.000000,183.000000) scale(0.100000,-0.100000)"
fill="#000000" stroke="none">
<path d="M753 1806 c-289 -55 -527 -234 -654 -491 -74 -150 -92 -230 -92 -405
0 -175 18 -255 93 -405 90 -181 226 -317 405 -406 149 -74 229 -92 405 -92
116 0 160 4 222 21 325 88 572 334 659 657 32 114 32 335 1 450 -89 329 -346
580 -673 660 -90 22 -278 28 -366 11z m372 -156 c261 -82 444 -267 527 -530
19 -63 23 -96 23 -210 0 -156 -17 -228 -88 -365 -58 -113 -199 -254 -312 -312
-137 -70 -209 -88 -365 -88 -156 0 -228 18 -365 88 -113 58 -254 199 -312 312
-71 137 -88 209 -88 365 0 114 4 147 23 210 49 155 131 282 248 381 73 62 235
143 329 163 101 22 287 15 380 -14z"/>
<path d="M851 1289 c-111 -19 -211 -105 -211 -181 l0 -28 84 0 c81 0 84 1 90
25 11 43 50 59 134 56 49 -2 92 -48 92 -99 l0 -39 -104 -7 c-139 -9 -196 -27
-250 -79 -86 -83 -86 -208 0 -289 81 -76 238 -81 331 -12 l31 24 7 -30 7 -30
90 0 c89 0 90 0 83 23 -5 12 -11 128 -14 257 -6 221 -7 238 -30 284 -48 97
-192 150 -340 125z m189 -443 c0 -57 -3 -67 -26 -85 -37 -29 -91 -44 -136 -38
-56 7 -78 31 -78 81 1 75 47 105 163 106 l77 0 0 -64z"/>
</g>
</svg>
